# xmcd
#
# Track frame offsets:
#	150
#	16919
#	30103
#	47796
#	62534
#	84783
#	104979
#	120001
#	138549
#	159867
#
# Disc length: 2387 seconds
#
# Revision: 0
# Processed by: cddbd v1.5.2PL0 Copyright (c) Steve Scherf et al.
# Submitted via: EasyCDDAExtractor 4.6.9.1
#
DISCID=6b09510a
DTITLE=Tammie Davis - It's A Beautiful Life
DYEAR=2010
DGENRE=Country
TTITLE0=My Aim's Gettin' Better
TTITLE1=Tall Dark and Lonesome
TTITLE2=It's A Beautiful Life
TTITLE3=Pity Party
TTITLE4=Always And Forever
TTITLE5=The Face
TTITLE6=Ain't That Kinda Girl
TTITLE7=Sexy Little Note
TTITLE8=Everything About You
TTITLE9=Go Rest High On That Mountain
EXTD=Released on June 29, 2010.
EXTT0=
EXTT1=
EXTT2=
EXTT3=
EXTT4=
EXTT5=
EXTT6=
EXTT7=
EXTT8=
EXTT9=
PLAYORDER=
